<?xml version="1.0" encoding="iso-8859-1"?>
<!-- Generator: Adobe Illustrator 13.0.0, SVG Export Plug-In . SVG Version: 6.00 Build 14948)  -->
<!DOCTYPE svg PUBLIC "-//W3C//DTD SVG 1.1//EN" "http://www.w3.org/Graphics/SVG/1.1/DTD/svg11.dtd">
<svg version="1.1" id="Layer_1" xmlns="http://www.w3.org/2000/svg" xmlns:xlink="http://www.w3.org/1999/xlink" x="0px" y="0px"
	 width="100px" height="100px" viewBox="0 0 100 100" enable-background="new 0 0 100 100" xml:space="preserve">
<g>
	<path fill="#806882" d="M51.096,24L40.535,41.453c3.605-1.308,8.122-2.3,13.047-2.319L51.096,24z"/>
	<path fill="#806882" d="M24.05,70.835c0-1.036,1.727-3.647,2.515-4.388c0.593-0.493,3.502-1.431,4.242-1.431
		c0.246,0,0.395,0.052,0.395,0.346c0,0.494-0.494,0.739-0.839,0.938c-0.295,0.196-0.543,0.441-0.837,0.739v0.099
		c17.602,0.64,22.435-4.438,22.435-5.229c0-2.513-13.658-4.485-16.025-4.88c-2.466-0.394-5.03-1.183-5.03-4.14
		c0-1.166,0.406-3.326,0.924-4.956l-17.283,3.209L28.264,59L5.844,89.77l34.314-16.652c-3.132,0.439-6.087,0.579-8.167,0.579
		C30.067,73.696,24.05,73.696,24.05,70.835z"/>
	<path fill="#8B9E64" d="M57.089,47.068c-2.121,0.791-2.515,1.037-4.439,2.417c-0.346,0.197-0.839,0.494-1.232,0.494
		c-0.492,0-0.789-0.248-0.789-0.741c0-0.1,0.938-1.628,3.6-3.452l-0.099-0.1c-12.722,0.446-18.195,5.03-18.244,6.164
		c0,0.692-0.642,1.038,13.116,4.242c4.981,1.182,7.298,3.797,7.298,6.212c0,4.336-3.362,7.062-7.727,8.757l12.785,9.053L57.637,59
		l38.111-22.326l-34.585,6.061C60.877,45.316,59.618,46.081,57.089,47.068z"/>
</g>
</svg>
